<svg width="1200" height="400" viewBox="0 0 1200 400" fill="none" xmlns="http://www.w3.org/2000/svg">
  <defs>
    <!-- Navy gradient background -->
    <linearGradient id="bgGradient" x1="0" y1="0" x2="1200" y2="400" gradientUnits="userSpaceOnUse">
      <stop offset="0%" stop-color="#001233"/>
      <stop offset="50%" stop-color="#002D74"/>
      <stop offset="100%" stop-color="#001D4A"/>
    </linearGradient>
    <!-- Subtle grid pattern -->
    <pattern id="grid" width="40" height="40" patternUnits="userSpaceOnUse">
      <path d="M 40 0 L 0 0 0 40" fill="none" stroke="rgba(255,255,255,0.03)" stroke-width="1"/>
    </pattern>
    <!-- Logo gradients -->
    <linearGradient id="logoDepth1" x1="8.5" y1="38" x2="8.5" y2="20" gradientUnits="userSpaceOnUse">
      <stop stop-color="#FFFFFF"/>
      <stop offset="1" stop-color="#FFFFFF" stop-opacity="0"/>
    </linearGradient>
    <linearGradient id="logoDepth2" x1="31.5" y1="2" x2="31.5" y2="20" gradientUnits="userSpaceOnUse">
      <stop stop-color="#FFFFFF"/>
      <stop offset="1" stop-color="#FFFFFF" stop-opacity="0"/>
    </linearGradient>
  </defs>

  <!-- Background -->
  <rect width="1200" height="400" fill="url(#bgGradient)"/>
  <rect width="1200" height="400" fill="url(#grid)"/>

  <!-- Center Logo Group -->
  <g transform="translate(600, 200)">
    <!-- Symbol (scaled from 40x40 to 60x60, centered left of text) -->
    <g transform="translate(-180, -30) scale(1.5)">
      <!-- Outer hexagon -->
      <path d="M20 2L36.5 11V29L20 38L3.5 29V11L20 2ZM31 25.5V14.5L20 9L9 14.5V25.5L20 31L31 25.5Z" fill="#FFFFFF"/>
      <!-- 3D depth effect -->
      <path style="mix-blend-mode:multiply" opacity="0.3" d="M20 38L36.5 29V11L20 2V9L31 14.5V25.5L20 31V38Z" fill="url(#logoDepth2)"/>
      <path style="mix-blend-mode:multiply" opacity="0.3" d="M20 2L3.5 11V29L20 38V31L9 25.5V14.5L20 9V2Z" fill="url(#logoDepth1)"/>
      <!-- Inner C shape -->
      <path d="M26.5 23.5L20 27L13.5 23.5V16.5L20 13L26.5 16.5L22.5 18.8L20 17.4L16.5 19.4V20.6L20 22.6L22.5 21.2L26.5 23.5Z" fill="#FFFFFF"/>
      <!-- Electric accent arrow -->
      <path d="M28 16.5L32 20L28 23.5" stroke="#00D4FF" stroke-width="2.5" stroke-linecap="round" stroke-linejoin="round"/>
    </g>

    <!-- Wordmark Text -->
    <text x="-100" y="12" font-family="system-ui, -apple-system, sans-serif" font-size="48" font-weight="700" fill="#FFFFFF">CRONOS</text>
    <text x="130" y="12" font-family="system-ui, -apple-system, sans-serif" font-size="48" font-weight="700" fill="#00D4FF">402</text>
  </g>

  <!-- Top Right Corner Symbol (small) -->
  <g transform="translate(1140, 40) scale(0.8)">
    <rect x="-4" y="-4" width="48" height="48" rx="8" fill="rgba(255,255,255,0.1)"/>
    <g transform="translate(0, 0)">
      <path d="M20 2L36.5 11V29L20 38L3.5 29V11L20 2ZM31 25.5V14.5L20 9L9 14.5V25.5L20 31L31 25.5Z" fill="#FFFFFF"/>
      <path d="M26.5 23.5L20 27L13.5 23.5V16.5L20 13L26.5 16.5L22.5 18.8L20 17.4L16.5 19.4V20.6L20 22.6L22.5 21.2L26.5 23.5Z" fill="#FFFFFF"/>
      <path d="M28 16.5L32 20L28 23.5" stroke="#00D4FF" stroke-width="2" stroke-linecap="round" stroke-linejoin="round"/>
    </g>
  </g>

  <!-- Bottom Left Corner Symbol (small) -->
  <g transform="translate(20, 320) scale(0.8)">
    <rect x="-4" y="-4" width="48" height="48" rx="8" fill="rgba(255,255,255,0.1)"/>
    <g transform="translate(0, 0)">
      <path d="M20 2L36.5 11V29L20 38L3.5 29V11L20 2ZM31 25.5V14.5L20 9L9 14.5V25.5L20 31L31 25.5Z" fill="#FFFFFF"/>
      <path d="M26.5 23.5L20 27L13.5 23.5V16.5L20 13L26.5 16.5L22.5 18.8L20 17.4L16.5 19.4V20.6L20 22.6L22.5 21.2L26.5 23.5Z" fill="#FFFFFF"/>
      <path d="M28 16.5L32 20L28 23.5" stroke="#00D4FF" stroke-width="2" stroke-linecap="round" stroke-linejoin="round"/>
    </g>
  </g>
</svg>
