<svg width="200" height="40" viewBox="0 0 200 40" fill="none" xmlns="http://www.w3.org/2000/svg">
  <defs>
    <linearGradient id="whiteDepth1" x1="8.5" y1="38" x2="8.5" y2="20" gradientUnits="userSpaceOnUse">
      <stop stop-color="#FFFFFF"/>
      <stop offset="1" stop-color="#FFFFFF" stop-opacity="0"/>
    </linearGradient>
    <linearGradient id="whiteDepth2" x1="31.5" y1="2" x2="31.5" y2="20" gradientUnits="userSpaceOnUse">
      <stop stop-color="#FFFFFF"/>
      <stop offset="1" stop-color="#FFFFFF" stop-opacity="0"/>
    </linearGradient>
  </defs>

  <!-- Symbol -->
  <g>
    <!-- Outer hexagon -->
    <path d="M20 2L36.5 11V29L20 38L3.5 29V11L20 2ZM31 25.5V14.5L20 9L9 14.5V25.5L20 31L31 25.5Z" fill="#FFFFFF"/>
    <!-- 3D depth effect -->
    <path style="mix-blend-mode:multiply" opacity="0.3" d="M20 38L36.5 29V11L20 2V9L31 14.5V25.5L20 31V38Z" fill="url(#whiteDepth2)"/>
    <path style="mix-blend-mode:multiply" opacity="0.3" d="M20 2L3.5 11V29L20 38V31L9 25.5V14.5L20 9V2Z" fill="url(#whiteDepth1)"/>
    <!-- Inner C shape -->
    <path d="M26.5 23.5L20 27L13.5 23.5V16.5L20 13L26.5 16.5L22.5 18.8L20 17.4L16.5 19.4V20.6L20 22.6L22.5 21.2L26.5 23.5Z" fill="#FFFFFF"/>
    <!-- Electric accent arrow -->
    <path d="M28 16.5L32 20L28 23.5" stroke="#00D4FF" stroke-width="2.5" stroke-linecap="round" stroke-linejoin="round"/>
  </g>

  <!-- Wordmark -->
  <text x="52" y="27" font-family="system-ui, -apple-system, 'Segoe UI', sans-serif" font-size="22" font-weight="700" fill="#FFFFFF">CRONOS</text>
  <text x="138" y="27" font-family="system-ui, -apple-system, 'Segoe UI', sans-serif" font-size="22" font-weight="700" fill="#00D4FF">402</text>
</svg>
